<?xml version="1.0" encoding="utf-8"?>
<svg version="1.1" xmlns:xlink="http://www.w3.org/1999/xlink" width="33px" height="33px" xmlns="http://www.w3.org/2000/svg">
  <g transform="matrix(1 0 0 1 -367 -994 )">
    <path d="M 32.2946273830156 26.7850953206239  C 32.7648757943385 27.2807625649913  33 27.8590410167533  33 28.5199306759099  C 33 29.1935297515887  32.7648757943385 29.7654534950895  32.2946273830156 30.2357019064125  L 30.2547660311958 32.2946273830156  C 29.7590987868284 32.7648757943385  29.1808203350664 33  28.5199306759099 33  C 27.8463316002311 33  27.2744078567302 32.7648757943385  26.8041594454073 32.2946273830156  L 19.8838821490468 25.3552859618718  C 19.4009243212016 24.8977469670711  19.159445407279 24.3258232235702  19.159445407279 23.6395147313692  C 19.159445407279 22.9659156556904  19.4326978625072 22.3558636626228  19.9792027729636 21.8093587521664  L 15.0987868284229 16.9289428076256  L 12.6967071057192 19.3310225303293  C 12.5187752744079 19.5089543616407  12.3027151935298 19.5979202772964  12.0485268630849 19.5979202772964  C 11.7943385326401 19.5979202772964  11.578278451762 19.5089543616407  11.4003466204506 19.3310225303293  C 11.4257654534951 19.3564413633738  11.5051993067591 19.4326978625072  11.6386481802426 19.5597920277296  C 11.7720970537262 19.686886192952  11.8515309069902 19.7694974003466  11.8769497400347 19.8076256499133  C 11.9023685730791 19.8457538994801  11.9659156556904 19.918833044483  12.0675909878683 20.026863084922  C 12.1692663200462 20.1348931253611  12.2328134026574 20.2206816868862  12.2582322357019 20.2842287694974  C 12.2836510687464 20.3477758521086  12.3217793183131 20.4335644136337  12.3726169844021 20.5415944540728  C 12.423454650491 20.6496244945118  12.4584055459272 20.7544771808203  12.4774696707106 20.8561525129983  C 12.4965337954939 20.9578278451762  12.5060658578856 21.0722125938764  12.5060658578856 21.1993067590988  C 12.5060658578856 21.682264586944  12.3281340265742 22.1143847487002  11.9722703639515 22.4956672443674  C 11.9341421143847 22.5337954939341  11.8292894280763 22.6481802426343  11.657712305026 22.8388214904679  C 11.4861351819757 23.0294627383016  11.3653957250144 23.1597342576545  11.2954939341421 23.2296360485269  C 11.2255921432698 23.2995378393992  11.1080300404391 23.4043905257077  10.9428076256499 23.5441941074523  C 10.7775852108608 23.683997689197  10.6377816291161 23.7824956672444  10.5233968804159 23.8396880415945  C 10.4090121317158 23.8968804159445  10.2692085499711 23.9540727902946  10.103986135182 24.0112651646447  C 9.93876372039284 24.0684575389948  9.7735413056037 24.0970537261698  9.60831889081456 24.0970537261698  C 9.0999422299249 24.0970537261698  8.66782206816869 23.9191218948585  8.31195840554593 23.5632582322357  L 0.533795493934142 15.7850953206239  C 0.177931831311381 15.4292316580012  0 14.9971114962449  0 14.4887348353553  C 0 14.3235124205661  0.0285961871750433 14.158290005777  0.08578856152513 13.9930675909879  C 0.142980935875217 13.8278451761987  0.200173310225303 13.6880415944541  0.25736568457539 13.5736568457539  C 0.314558058925477 13.4592720970537  0.413056036972848 13.3194685153091  0.552859618717504 13.1542461005199  C 0.692663200462161 12.9890236857308  0.797515886770653 12.8714615829001  0.867417677642981 12.8015597920277  C 0.937319468515309 12.7316580011554  1.06759098786828 12.6109185441941  1.25823223570191 12.4393414211438  C 1.44887348353553 12.2677642980936  1.5632582322357 12.1629116117851  1.60138648180243 12.1247833622184  C 1.98266897746967 11.7689196995956  2.41478913922588 11.5909878682842  2.89774696707106 11.5909878682842  C 3.02484113229347 11.5909878682842  3.13922588099365 11.6005199306759  3.24090121317158 11.6195840554593  C 3.34257654534951 11.6386481802426  3.447429231658 11.6735990756788  3.55545927209705 11.7244367417678  C 3.66348931253611 11.7752744078567  3.74927787406124 11.8134026574235  3.81282495667244 11.8388214904679  C 3.87637203928365 11.8642403235124  3.96216060080878 11.9277874061236  4.07019064124783 12.0294627383016  C 4.17822068168689 12.1311380704795  4.25129982668977 12.1946851530907  4.2894280762565 12.2201039861352  C 4.32755632582322 12.2455228191797  4.41016753321779 12.3249566724437  4.53726169844021 12.4584055459272  C 4.66435586366262 12.5918544194107  4.74061236279607 12.6712882726748  4.76603119584055 12.6967071057192  C 4.58809936452917 12.5187752744079  4.49913344887348 12.3027151935297  4.49913344887348 12.0485268630849  C 4.49913344887348 11.7943385326401  4.58809936452917 11.578278451762  4.76603119584055 11.4003466204506  L 11.4003466204506 4.76603119584055  C 11.578278451762 4.58809936452917  11.7943385326401 4.49913344887348  12.0485268630849 4.49913344887348  C 12.3027151935298 4.49913344887348  12.5187752744079 4.58809936452917  12.6967071057192 4.76603119584055  C 12.6712882726748 4.74061236279607  12.5918544194107 4.66435586366262  12.4584055459272 4.53726169844021  C 12.3249566724437 4.41016753321779  12.2455228191797 4.32755632582322  12.2201039861352 4.2894280762565  C 12.1946851530907 4.25129982668977  12.1311380704795 4.17822068168688  12.0294627383016 4.07019064124783  C 11.9277874061236 3.96216060080878  11.8642403235124 3.87637203928365  11.8388214904679 3.81282495667244  C 11.8134026574235 3.74927787406123  11.7752744078567 3.6634893125361  11.7244367417678 3.55545927209705  C 11.6735990756788 3.447429231658  11.6386481802426 3.34257654534951  11.6195840554593 3.24090121317158  C 11.6005199306759 3.13922588099364  11.5909878682842 3.02484113229347  11.5909878682842 2.89774696707106  C 11.5909878682842 2.41478913922588  11.7689196995956 1.98266897746967  12.1247833622184 1.60138648180243  C 12.1629116117851 1.5632582322357  12.2677642980936 1.44887348353553  12.4393414211438 1.25823223570191  C 12.6109185441941 1.06759098786828  12.7316580011554 0.937319468515305  12.8015597920277 0.867417677642982  C 12.8714615829001 0.797515886770652  12.9890236857308 0.692663200462158  13.1542461005199 0.552859618717505  C 13.3194685153091 0.413056036972844  13.4592720970537 0.314558058925478  13.5736568457539 0.257365684575391  C 13.6880415944541 0.200173310225302  13.8278451761987 0.142980935875215  13.9930675909879 0.0857885615251293  C 14.158290005777 0.0285961871750431  14.3235124205661 0  14.4887348353553 0  C 14.9971114962449 0  15.4292316580012 0.177931831311379  15.7850953206239 0.533795493934144  L 23.5632582322357 8.31195840554593  C 23.9191218948585 8.66782206816869  24.0970537261698 9.0999422299249  24.0970537261698 9.60831889081456  C 24.0970537261698 9.7735413056037  24.0684575389948 9.93876372039284  24.0112651646447 10.103986135182  C 23.9540727902946 10.2692085499711  23.8968804159445 10.4090121317158  23.8396880415945 10.5233968804159  C 23.7824956672444 10.6377816291161  23.683997689197 10.7775852108608  23.5441941074523 10.9428076256499  C 23.4043905257077 11.108030040439  23.2995378393992 11.2255921432698  23.2296360485269 11.2954939341421  C 23.1597342576545 11.3653957250144  23.0294627383016 11.4861351819757  22.8388214904679 11.657712305026  C 22.6481802426343 11.8292894280763  22.5337954939341 11.9341421143847  22.4956672443674 11.9722703639515  C 22.1143847487002 12.3281340265742  21.682264586944 12.5060658578856  21.1993067590988 12.5060658578856  C 21.0722125938764 12.5060658578856  20.9578278451762 12.4965337954939  20.8561525129983 12.4774696707106  C 20.7544771808203 12.4584055459272  20.6496244945118 12.423454650491  20.5415944540728 12.3726169844021  C 20.4335644136337 12.3217793183131  20.3477758521086 12.2836510687464  20.2842287694974 12.2582322357019  C 20.2206816868862 12.2328134026574  20.1348931253611 12.1692663200462  20.026863084922 12.0675909878683  C 19.918833044483 11.9659156556903  19.8457538994801 11.9023685730791  19.8076256499133 11.8769497400347  C 19.7694974003466 11.8515309069902  19.6868861929521 11.7720970537262  19.5597920277296 11.6386481802426  C 19.4326978625072 11.5051993067591  19.3564413633738 11.4257654534951  19.3310225303293 11.4003466204506  C 19.5089543616407 11.578278451762  19.5979202772964 11.7943385326401  19.5979202772964 12.0485268630849  C 19.5979202772964 12.3027151935297  19.5089543616407 12.5187752744079  19.3310225303293 12.6967071057192  L 16.9289428076256 15.0987868284229  L 21.8093587521664 19.9792027729636  C 22.3558636626228 19.4326978625072  22.9659156556904 19.159445407279  23.6395147313692 19.159445407279  C 24.3004043905257 19.159445407279  24.8786828422877 19.3945696129405  25.3743500866551 19.8648180242634  L 32.2946273830156 26.7850953206239  Z " fill-rule="nonzero" fill="#ffffff" stroke="none" transform="matrix(1 0 0 1 367 994 )" />
  </g>
</svg>