<?xml version="1.0" encoding="utf-8"?>
<svg version="1.1" xmlns:xlink="http://www.w3.org/1999/xlink" width="40px" height="26px" xmlns="http://www.w3.org/2000/svg">
  <g transform="matrix(1 0 0 1 -829 -913 )">
    <path d="M 29.6986607142857 20.3689236111111  C 32.6822916666667 18.5407986111111  35.1636904761905 16.0844907407407  37.1428571428571 13  C 34.8809523809524 9.44907407407407  32.046130952381 6.79340277777778  28.6383928571429 5.03298611111111  C 29.546130952381 6.59780092592592  30 8.29050925925926  30 10.1111111111111  C 30 12.8946759259259  29.0215773809524 15.2757523148148  27.0647321428571 17.2543402777778  C 25.1078869047619 19.2329282407407  22.7529761904762 20.2222222222222  20 20.2222222222222  C 17.2470238095238 20.2222222222222  14.8921130952381 19.2329282407407  12.9352678571429 17.2543402777778  C 10.9784226190476 15.2757523148148  10 12.8946759259259  10 10.1111111111111  C 10 8.29050925925926  10.453869047619 6.59780092592592  11.3616071428571 5.03298611111111  C 7.95386904761905 6.79340277777778  5.11904761904762 9.44907407407407  2.85714285714286 13  C 4.83630952380952 16.0844907407407  7.31770833333333 18.5407986111111  10.3013392857143 20.3689236111111  C 13.2849702380952 22.1970486111111  16.5178571428571 23.1111111111111  20 23.1111111111111  C 23.4821428571429 23.1111111111111  26.7150297619048 22.1970486111111  29.6986607142857 20.3689236111111  Z M 20.7589285714286 5.10069444444444  C 20.9672619047619 4.8900462962963  21.0714285714286 4.63425925925926  21.0714285714286 4.33333333333333  C 21.0714285714286 4.03240740740741  20.9672619047619 3.77662037037037  20.7589285714286 3.56597222222222  C 20.5505952380952 3.35532407407407  20.297619047619 3.25  20 3.25  C 18.139880952381 3.25  16.5438988095238 3.92332175925926  15.2120535714286 5.26996527777778  C 13.8802083333333 6.6166087962963  13.2142857142857 8.23032407407407  13.2142857142857 10.1111111111111  C 13.2142857142857 10.412037037037  13.3184523809524 10.6678240740741  13.5267857142857 10.8784722222222  C 13.735119047619 11.0891203703704  13.9880952380952 11.1944444444444  14.2857142857143 11.1944444444444  C 14.5833333333333 11.1944444444444  14.8363095238095 11.0891203703704  15.0446428571429 10.8784722222222  C 15.2529761904762 10.6678240740741  15.3571428571429 10.412037037037  15.3571428571429 10.1111111111111  C 15.3571428571429 8.81712962962963  15.8110119047619 7.71122685185185  16.71875 6.79340277777778  C 17.6264880952381 5.8755787037037  18.7202380952381 5.41666666666666  20 5.41666666666667  C 20.297619047619 5.41666666666666  20.5505952380952 5.31134259259259  20.7589285714286 5.10069444444444  Z M 39.5535714285714 11.4427083333333  C 39.8511904761905 11.9693287037037  40 12.4884259259259  40 13  C 40 13.5115740740741  39.8511904761905 14.0306712962963  39.5535714285714 14.5572916666667  C 37.4702380952381 18.0179398148148  34.6688988095238 20.7902199074074  31.1495535714286 22.8741319444444  C 27.6302083333333 24.9580439814815  23.9136904761905 26  20 26  C 16.0863095238095 26  12.3697916666667 24.9542824074074  8.85044642857143 22.8628472222222  C 5.33110119047619 20.771412037037  2.52976190476191 18.0028935185185  0.446428571428571 14.5572916666667  C 0.148809523809524 14.0306712962963  0 13.5115740740741  0 13  C 0 12.4884259259259  0.148809523809524 11.9693287037037  0.446428571428571 11.4427083333333  C 2.52976190476191 7.99710648148148  5.33110119047619 5.22858796296296  8.85044642857143 3.13715277777778  C 12.3697916666667 1.04571759259259  16.0863095238095 0  20 0  C 23.9136904761905 0  27.6302083333333 1.04571759259259  31.1495535714286 3.13715277777778  C 34.6688988095238 5.22858796296296  37.4702380952381 7.99710648148148  39.5535714285714 11.4427083333333  Z " fill-rule="nonzero" fill="#fdfcfd" stroke="none" transform="matrix(1 0 0 1 829 913 )" />
  </g>
</svg>